<?xml version="1.0" encoding="UTF-8"?>
<svg version="1.1" xmlns="http://www.w3.org/2000/svg" width="500" height="500">
<path d="M0 0 C10.54525894 7.75586786 21.86881247 26.58831817 26 39 C26.76807086 45.49659937 24.60305359 50.63397313 22.25 56.5625 C21.90195312 57.48224609 21.55390625 58.40199219 21.1953125 59.34960938 C16.18580178 72.2537379 9.73697329 76.00350691 -2.50976562 81.44335938 C-3.35216797 81.81267578 -4.19457031 82.18199219 -5.0625 82.5625 C-11.12239009 85.23475922 -17.09878458 87.99140347 -23 91 C-22.59007812 91.47308594 -22.18015625 91.94617188 -21.7578125 92.43359375 C-18.24754466 96.74164974 -16.53190826 99.9606886 -15.6171875 105.40234375 C-14.8327361 108.70399047 -13.51502625 111.59278982 -12.125 114.6875 C-2.22291065 137.22079113 0.2002964 161.81524821 -8.625 185.125 C-12.10459368 194.57549408 -11.80064677 201.66984083 -8 211 C-5.05903586 217.0334325 -1.89779643 221.70489705 3.58203125 225.6484375 C5.3396687 227.32376135 5.61333738 228.63985152 6 231 C0.16320819 234.77674764 -5.96678598 237.44441994 -13 236 C-21.1595646 232.81163834 -28.40013376 228.92615035 -34 222 C-34.33 222.99 -34.66 223.98 -35 225 C-33.58791833 226.60820412 -32.17013964 228.21140708 -30.75 229.8125 C-29.96109375 230.70582031 -29.1721875 231.59914063 -28.359375 232.51953125 C-26.34120555 234.64128225 -24.40083295 236.34254423 -22 238 C-22.375 239.9375 -22.375 239.9375 -23 242 C-26.20305547 243.60152773 -29.64968954 243.45868383 -33.1875 243.73046875 C-36.16658841 243.95870871 -36.16658841 243.95870871 -39.6875 244.8125 C-44.28196697 245.07256417 -47.22402898 243.5250835 -51 241 C-51.99052914 240.03232922 -52.97042874 239.05361447 -53.9375 238.0625 C-56.66815636 235.70249939 -56.66815636 235.70249939 -58.94042969 236.36474609 C-59.65618164 236.64398926 -60.37193359 236.92323242 -61.109375 237.2109375 C-65.79139917 238.93325184 -70.48986522 240.29380687 -75.3125 241.5625 C-76.46008789 241.87477539 -76.46008789 241.87477539 -77.63085938 242.19335938 C-90.0922347 245.4867966 -102.05102379 246.40275331 -114.875 246.375 C-116.09639679 246.37567978 -116.09639679 246.37567978 -117.34246826 246.37637329 C-133.72077448 246.34964485 -149.04857049 244.3382933 -164.7578125 239.5703125 C-167.1074717 238.97266399 -169.27020642 238.80958553 -171.6875 238.6875 C-181.3550369 237.74641234 -188.60711049 227.60441894 -195 221 C-193.89453125 219.44921875 -193.89453125 219.44921875 -192 218 C-189.07421875 218.20703125 -189.07421875 218.20703125 -185.6875 218.8125 C-180.97624199 219.47812673 -180.97624199 219.47812673 -176.98828125 217.40234375 C-175.47495763 215.27278123 -175.47495763 215.27278123 -174.19921875 213.01953125 C-172.6057904 210.33613562 -170.86929631 209.16322823 -168 208 C-167.01 208.33 -166.02 208.66 -165 209 C-165.350625 209.721875 -165.70125 210.44375 -166.0625 211.1875 C-167.37450584 215.12351753 -166.62340768 217.50382158 -165.0625 221.25 C-164.1117806 223.16596433 -164.1117806 223.16596433 -162 224 C-142.75719488 224.16703824 -124.91178514 211.08573396 -111.390625 198.5 C-103.17398615 189.90743649 -97.85704125 179.32776713 -92.40673828 168.87744141 C-89.69552885 163.76213455 -87.12315047 159.73416707 -83 155.6875 C-80.97513314 153.62840834 -80.97513314 153.62840834 -80 151 C-80.50276181 146.55078043 -81.60288925 142.52841698 -82.87109375 138.25 C-85.59880761 128.78883865 -83.5454828 120.20880694 -78.87109375 111.734375 C-74.46041722 105.28870992 -68.5871887 100.14970346 -61 98 C-53.03333772 96.94060342 -45.02489607 96.8552624 -37 97 C-37.495 96.67 -37.99 96.34 -38.5 96 C-40.4308424 93.42554347 -40.48984467 91.27762443 -40.36474609 88.11328125 C-39.75164736 84.56108405 -37.87339451 81.86390893 -35.8125 79 C-34.98667673 77.78926873 -34.16115427 76.57833223 -33.3359375 75.3671875 C-32.73410645 74.50432129 -32.73410645 74.50432129 -32.12011719 73.62402344 C-30.65532372 71.50026447 -29.28988643 69.32165078 -27.9375 67.125 C-26.9784375 65.578125 -26.9784375 65.578125 -26 64 C-28.99378247 58.68345527 -32.7356684 53.97503307 -36.44140625 49.14648438 C-45.3941961 37.36353048 -45.3941961 37.36353048 -46.79296875 31.90625 C-45.51405395 27.21899575 -42.13773259 25.27162565 -38.3125 22.5 C-37.51972656 21.90485596 -36.72695313 21.30971191 -35.91015625 20.6965332 C-6.99281833 -0.73608614 -6.99281833 -0.73608614 0 0 Z " fill="#F4EEE9" transform="translate(327,129)"/>
<path d="M0 0 C10.54525894 7.75586786 21.86881247 26.58831817 26 39 C26.76807086 45.49659937 24.60305359 50.63397313 22.25 56.5625 C21.90195312 57.48224609 21.55390625 58.40199219 21.1953125 59.34960938 C16.18580178 72.2537379 9.73697329 76.00350691 -2.50976562 81.44335938 C-3.35216797 81.81267578 -4.19457031 82.18199219 -5.0625 82.5625 C-11.12239009 85.23475922 -17.09878458 87.99140347 -23 91 C-22.59007812 91.47308594 -22.18015625 91.94617188 -21.7578125 92.43359375 C-18.24754466 96.74164974 -16.53190826 99.9606886 -15.6171875 105.40234375 C-14.8327361 108.70399047 -13.51502625 111.59278982 -12.125 114.6875 C-2.22291065 137.22079113 0.2002964 161.81524821 -8.625 185.125 C-12.10459368 194.57549408 -11.80064677 201.66984083 -8 211 C-5.05903586 217.0334325 -1.89779643 221.70489705 3.58203125 225.6484375 C5.3396687 227.32376135 5.61333738 228.63985152 6 231 C0.16320819 234.77674764 -5.96678598 237.44441994 -13 236 C-21.1595646 232.81163834 -28.40013376 228.92615035 -34 222 C-34.33 222.99 -34.66 223.98 -35 225 C-33.58791833 226.60820412 -32.17013964 228.21140708 -30.75 229.8125 C-29.96109375 230.70582031 -29.1721875 231.59914063 -28.359375 232.51953125 C-26.34120555 234.64128225 -24.40083295 236.34254423 -22 238 C-22.375 239.9375 -22.375 239.9375 -23 242 C-26.20305547 243.60152773 -29.64968954 243.45868383 -33.1875 243.73046875 C-36.16658841 243.95870871 -36.16658841 243.95870871 -39.6875 244.8125 C-44.28196697 245.07256417 -47.22402898 243.5250835 -51 241 C-51.99052914 240.03232922 -52.97042874 239.05361447 -53.9375 238.0625 C-56.66815636 235.70249939 -56.66815636 235.70249939 -58.94042969 236.36474609 C-59.65618164 236.64398926 -60.37193359 236.92323242 -61.109375 237.2109375 C-65.79139917 238.93325184 -70.48986522 240.29380687 -75.3125 241.5625 C-76.46008789 241.87477539 -76.46008789 241.87477539 -77.63085938 242.19335938 C-90.0922347 245.4867966 -102.05102379 246.40275331 -114.875 246.375 C-116.09639679 246.37567978 -116.09639679 246.37567978 -117.34246826 246.37637329 C-133.72077448 246.34964485 -149.04857049 244.3382933 -164.7578125 239.5703125 C-167.1074717 238.97266399 -169.27020642 238.80958553 -171.6875 238.6875 C-181.3550369 237.74641234 -188.60711049 227.60441894 -195 221 C-193.89453125 219.44921875 -193.89453125 219.44921875 -192 218 C-189.07421875 218.20703125 -189.07421875 218.20703125 -185.6875 218.8125 C-180.97624199 219.47812673 -180.97624199 219.47812673 -176.98828125 217.40234375 C-175.47495763 215.27278123 -175.47495763 215.27278123 -174.19921875 213.01953125 C-172.6057904 210.33613562 -170.86929631 209.16322823 -168 208 C-167.01 208.33 -166.02 208.66 -165 209 C-165.350625 209.721875 -165.70125 210.44375 -166.0625 211.1875 C-167.37450584 215.12351753 -166.62340768 217.50382158 -165.0625 221.25 C-164.1117806 223.16596433 -164.1117806 223.16596433 -162 224 C-142.75719488 224.16703824 -124.91178514 211.08573396 -111.390625 198.5 C-103.17398615 189.90743649 -97.85704125 179.32776713 -92.40673828 168.87744141 C-89.69552885 163.76213455 -87.12315047 159.73416707 -83 155.6875 C-80.97513314 153.62840834 -80.97513314 153.62840834 -80 151 C-80.50276181 146.55078043 -81.60288925 142.52841698 -82.87109375 138.25 C-85.59880761 128.78883865 -83.5454828 120.20880694 -78.87109375 111.734375 C-74.46041722 105.28870992 -68.5871887 100.14970346 -61 98 C-53.03333772 96.94060342 -45.02489607 96.8552624 -37 97 C-37.495 96.67 -37.99 96.34 -38.5 96 C-40.4308424 93.42554347 -40.48984467 91.27762443 -40.36474609 88.11328125 C-39.75164736 84.56108405 -37.87339451 81.86390893 -35.8125 79 C-34.98667673 77.78926873 -34.16115427 76.57833223 -33.3359375 75.3671875 C-32.73410645 74.50432129 -32.73410645 74.50432129 -32.12011719 73.62402344 C-30.65532372 71.50026447 -29.28988643 69.32165078 -27.9375 67.125 C-26.9784375 65.578125 -26.9784375 65.578125 -26 64 C-28.99378247 58.68345527 -32.7356684 53.97503307 -36.44140625 49.14648438 C-45.3941961 37.36353048 -45.3941961 37.36353048 -46.79296875 31.90625 C-45.51405395 27.21899575 -42.13773259 25.27162565 -38.3125 22.5 C-37.51972656 21.90485596 -36.72695313 21.30971191 -35.91015625 20.6965332 C-6.99281833 -0.73608614 -6.99281833 -0.73608614 0 0 Z M-33.625 98.5625 C-35.6232355 100.34986643 -36.54783196 100.97809567 -39.2578125 101.109375 C-41.8504781 100.80053082 -44.42065329 100.40445377 -47 100 C-56.37376668 99.15577878 -63.88227946 101.22822085 -71.3125 107.125 C-77.00066973 112.45621981 -80.60216498 119.85109679 -81.203125 127.62890625 C-81.3377402 136.05357434 -79.64462444 143.06612667 -77 151 C-78.1875 152.83984375 -78.1875 152.83984375 -80 154.9375 C-86.26790723 162.65757584 -90.68130764 171.28129978 -95 180.1875 C-97.67430779 185.6990011 -100.53484227 190.52888636 -104.5546875 195.203125 C-106.08428253 196.9494671 -106.08428253 196.9494671 -106.9453125 199.109375 C-108.29161571 201.52274816 -109.5156095 201.85575563 -112 203 C-113.65038761 204.32310736 -115.27257825 205.68168977 -116.875 207.0625 C-132.59380044 220.04305196 -147.57366599 226.46401304 -168 228 C-167.81695312 227.37738281 -167.63390625 226.75476563 -167.4453125 226.11328125 C-166.86170125 223.34368753 -167.71985452 222.48917176 -169 220 C-169.38749213 217.67504723 -169.72982839 215.34148732 -170 213 C-173.94856906 216.31117568 -173.94856906 216.31117568 -175.5 221.0625 C-174.95540349 224.26200452 -174.00052939 225.52594105 -172 228 C-172.64066406 227.566875 -173.28132813 227.13375 -173.94140625 226.6875 C-179.22684304 223.28465545 -182.67477462 221.1749706 -189 222 C-188.15356901 223.04796218 -187.29723808 224.08792692 -186.4375 225.125 C-185.96183594 225.70507812 -185.48617187 226.28515625 -184.99609375 226.8828125 C-178.99069383 233.25253218 -174.37469486 236.05557291 -165.6875 237.6875 C-164.18775635 237.98756958 -164.18775635 237.98756958 -162.65771484 238.29370117 C-133.53128346 243.87863464 -102.88035867 246.36307341 -74.0625 238.125 C-72.75478638 237.75834229 -72.75478638 237.75834229 -71.4206543 237.38427734 C-70.61281494 237.13629395 -69.80497559 236.88831055 -68.97265625 236.6328125 C-68.25343994 236.41512207 -67.53422363 236.19743164 -66.79321289 235.97314453 C-64.43605993 234.69395982 -63.9330809 233.47918932 -63 231 C-62.61709538 229.00889599 -62.27395385 227.00899487 -62 225 C-61.5875 225.49628906 -61.175 225.99257813 -60.75 226.50390625 C-53.02820195 235.69226076 -53.02820195 235.69226076 -43 242 C-39.65022937 241.68097423 -38.40820361 241.40820361 -36 239 C-35.34 239.33 -34.68 239.66 -34 240 C-31.6670134 240.04022391 -29.33293334 240.04320247 -27 240 C-27 239.34 -27 238.68 -27 238 C-28.13937977 237.06970854 -29.3134739 236.18185855 -30.5 235.3125 C-39.35293433 227.7355224 -43.64093065 216.67484805 -44.84375 205.31640625 C-44.8953125 204.55199219 -44.946875 203.78757812 -45 203 C-44.34 203 -43.68 203 -43 203 C-42.94392578 203.96099609 -42.94392578 203.96099609 -42.88671875 204.94140625 C-42.45662723 210.60006141 -41.53913094 214.92173813 -39 220 C-22.67486654 208.42399627 -11.37454561 191.79716225 -7.625 171.9375 C-4.890124 148.41756643 -9.05910151 127.72238911 -18 106 C-18.33 106 -18.66 106 -19 106 C-19.309375 104.865625 -19.61875 103.73125 -19.9375 102.5625 C-20.62924531 99.21224901 -20.62924531 99.21224901 -22 98 C-23.66617115 97.95936168 -25.33388095 97.957279 -27 98 C-27 97.34 -27 96.68 -27 96 C-31.13434764 95.53430885 -31.13434764 95.53430885 -33.625 98.5625 Z " fill="#D3B695" transform="translate(327,129)"/>
<path d="M0 0 C4.8150356 3.53397108 6.43700177 7.67302087 7.3828125 13.3671875 C8.16100543 16.68682064 9.47708122 19.57869556 10.875 22.6875 C20.77708935 45.22079113 23.2002964 69.81524821 14.375 93.125 C10.89540632 102.57549408 11.19935323 109.66984083 15 119 C17.94096414 125.0334325 21.10220357 129.70489705 26.58203125 133.6484375 C28.3396687 135.32376135 28.61333738 136.63985152 29 139 C23.16320819 142.77674764 17.03321402 145.44441994 10 144 C1.8404354 140.81163834 -5.40013376 136.92615035 -11 130 C-11.33 130.99 -11.66 131.98 -12 133 C-10.58791833 134.60820412 -9.17013964 136.21140708 -7.75 137.8125 C-6.96109375 138.70582031 -6.1721875 139.59914063 -5.359375 140.51953125 C-3.34120555 142.64128225 -1.40083295 144.34254423 1 146 C0.625 147.9375 0.625 147.9375 0 150 C-3.20305547 151.60152773 -6.64968954 151.45868383 -10.1875 151.73046875 C-13.16658841 151.95870871 -13.16658841 151.95870871 -16.6875 152.8125 C-21.28196697 153.07256417 -24.22402898 151.5250835 -28 149 C-28.99052914 148.03232922 -29.97042874 147.05361447 -30.9375 146.0625 C-33.66815636 143.70249939 -33.66815636 143.70249939 -35.94042969 144.36474609 C-36.65618164 144.64398926 -37.37193359 144.92323242 -38.109375 145.2109375 C-42.79139917 146.93325184 -47.48986522 148.29380687 -52.3125 149.5625 C-53.46008789 149.87477539 -53.46008789 149.87477539 -54.63085938 150.19335938 C-67.0922347 153.4867966 -79.05102379 154.40275331 -91.875 154.375 C-93.09639679 154.37567978 -93.09639679 154.37567978 -94.34246826 154.37637329 C-110.72077448 154.34964485 -126.04857049 152.3382933 -141.7578125 147.5703125 C-144.1074717 146.97266399 -146.27020642 146.80958553 -148.6875 146.6875 C-158.3550369 145.74641234 -165.60711049 135.60441894 -172 129 C-170.89453125 127.44921875 -170.89453125 127.44921875 -169 126 C-166.07421875 126.20703125 -166.07421875 126.20703125 -162.6875 126.8125 C-157.97624199 127.47812673 -157.97624199 127.47812673 -153.98828125 125.40234375 C-152.47495763 123.27278123 -152.47495763 123.27278123 -151.19921875 121.01953125 C-149.6057904 118.33613562 -147.86929631 117.16322823 -145 116 C-143.515 116.495 -143.515 116.495 -142 117 C-142.5259375 118.0828125 -142.5259375 118.0828125 -143.0625 119.1875 C-144.37450584 123.12351753 -143.62340768 125.50382158 -142.0625 129.25 C-141.1117806 131.16596433 -141.1117806 131.16596433 -139 132 C-119.75719488 132.16703824 -101.91178514 119.08573396 -88.390625 106.5 C-80.17398615 97.90743649 -74.85704125 87.32776713 -69.40673828 76.87744141 C-66.69552885 71.76213455 -64.12315047 67.73416707 -60 63.6875 C-57.97513314 61.62840834 -57.97513314 61.62840834 -57 59 C-57.50276181 54.55078043 -58.60288925 50.52841698 -59.87109375 46.25 C-62.59880761 36.78883865 -60.5454828 28.20880694 -55.87109375 19.734375 C-51.46041722 13.28870992 -45.5871887 8.14970346 -38 6 C-30.03333772 4.94060342 -22.02489607 4.8552624 -14 5 C-14 4.01 -14 3.02 -14 2 C-9.22714622 0.44151713 -5.05243628 -0.8267623 0 0 Z M-10.625 6.5625 C-12.6232355 8.34986643 -13.54783196 8.97809567 -16.2578125 9.109375 C-18.8504781 8.80053082 -21.42065329 8.40445377 -24 8 C-33.37376668 7.15577878 -40.88227946 9.22822085 -48.3125 15.125 C-54.00066973 20.45621981 -57.60216498 27.85109679 -58.203125 35.62890625 C-58.3377402 44.05357434 -56.64462444 51.06612667 -54 59 C-55.1875 60.83984375 -55.1875 60.83984375 -57 62.9375 C-63.26790723 70.65757584 -67.68130764 79.28129978 -72 88.1875 C-74.67430779 93.6990011 -77.53484227 98.52888636 -81.5546875 103.203125 C-83.08428253 104.9494671 -83.08428253 104.9494671 -83.9453125 107.109375 C-85.29161571 109.52274816 -86.5156095 109.85575563 -89 111 C-90.65038761 112.32310736 -92.27257825 113.68168977 -93.875 115.0625 C-109.59380044 128.04305196 -124.57366599 134.46401304 -145 136 C-144.81695312 135.37738281 -144.63390625 134.75476563 -144.4453125 134.11328125 C-143.86170125 131.34368753 -144.71985452 130.48917176 -146 128 C-146.38749213 125.67504723 -146.72982839 123.34148732 -147 121 C-150.94856906 124.31117568 -150.94856906 124.31117568 -152.5 129.0625 C-151.95540349 132.26200452 -151.00052939 133.52594105 -149 136 C-149.64066406 135.566875 -150.28132813 135.13375 -150.94140625 134.6875 C-156.22684304 131.28465545 -159.67477462 129.1749706 -166 130 C-165.15356901 131.04796218 -164.29723808 132.08792692 -163.4375 133.125 C-162.96183594 133.70507812 -162.48617187 134.28515625 -161.99609375 134.8828125 C-155.99069383 141.25253218 -151.37469486 144.05557291 -142.6875 145.6875 C-141.18775635 145.98756958 -141.18775635 145.98756958 -139.65771484 146.29370117 C-110.53128346 151.87863464 -79.88035867 154.36307341 -51.0625 146.125 C-49.75478638 145.75834229 -49.75478638 145.75834229 -48.4206543 145.38427734 C-47.61281494 145.13629395 -46.80497559 144.88831055 -45.97265625 144.6328125 C-45.25343994 144.41512207 -44.53422363 144.19743164 -43.79321289 143.97314453 C-41.43605993 142.69395982 -40.9330809 141.47918932 -40 139 C-39.61709538 137.00889599 -39.27395385 135.00899487 -39 133 C-38.5875 133.49628906 -38.175 133.99257813 -37.75 134.50390625 C-30.02820195 143.69226076 -30.02820195 143.69226076 -20 150 C-16.65022937 149.68097423 -15.40820361 149.40820361 -13 147 C-12.34 147.33 -11.68 147.66 -11 148 C-8.6670134 148.04022391 -6.33293334 148.04320247 -4 148 C-4 147.34 -4 146.68 -4 146 C-5.13937977 145.06970854 -6.3134739 144.18185855 -7.5 143.3125 C-16.35293433 135.7355224 -20.64093065 124.67484805 -21.84375 113.31640625 C-21.8953125 112.55199219 -21.946875 111.78757812 -22 111 C-21.34 111 -20.68 111 -20 111 C-19.94392578 111.96099609 -19.94392578 111.96099609 -19.88671875 112.94140625 C-19.45662723 118.60006141 -18.53913094 122.92173813 -16 128 C0.32513346 116.42399627 11.62545439 99.79716225 15.375 79.9375 C18.109876 56.41756643 13.94089849 35.72238911 5 14 C4.67 14 4.34 14 4 14 C3.690625 12.865625 3.38125 11.73125 3.0625 10.5625 C2.37075469 7.21224901 2.37075469 7.21224901 1 6 C-0.66617115 5.95936168 -2.33388095 5.957279 -4 6 C-4 5.34 -4 4.68 -4 4 C-8.13434764 3.53430885 -8.13434764 3.53430885 -10.625 6.5625 Z " fill="#A88E7F" transform="translate(304,221)"/>
<path d="M0 0 C10.54525894 7.75586786 21.86881247 26.58831817 26 39 C26.76807086 45.49659937 24.60305359 50.63397313 22.25 56.5625 C21.90195312 57.48224609 21.55390625 58.40199219 21.1953125 59.34960938 C16.18580178 72.2537379 9.73697329 76.00350691 -2.50976562 81.44335938 C-3.35216797 81.81267578 -4.19457031 82.18199219 -5.0625 82.5625 C-10.52921963 84.97318596 -15.94726765 87.41160863 -21.25146484 90.16503906 C-25.31392031 92.1049438 -29.43979438 92.9277154 -33.875 93.5 C-34.90625 93.665 -35.9375 93.83 -37 94 C-37.495 94.99 -37.495 94.99 -38 96 C-40 94 -40 94 -40.38671875 90.3125 C-40.26625715 85.74937342 -38.42917009 82.63623893 -35.8125 79 C-34.98667673 77.78926873 -34.16115427 76.57833223 -33.3359375 75.3671875 C-32.9347168 74.79194336 -32.53349609 74.21669922 -32.12011719 73.62402344 C-30.65532372 71.50026447 -29.28988643 69.32165078 -27.9375 67.125 C-27.298125 66.09375 -26.65875 65.0625 -26 64 C-28.99378247 58.68345527 -32.7356684 53.97503307 -36.44140625 49.14648438 C-45.3941961 37.36353048 -45.3941961 37.36353048 -46.79296875 31.90625 C-45.51405395 27.21899575 -42.13773259 25.27162565 -38.3125 22.5 C-37.51972656 21.90485596 -36.72695313 21.30971191 -35.91015625 20.6965332 C-6.99281833 -0.73608614 -6.99281833 -0.73608614 0 0 Z M-28.45703125 23.38671875 C-31.94100208 25.96790527 -35.46560748 28.48836383 -39 31 C-38.60236284 36.4379569 -35.41186044 40.11849538 -32.3125 44.375 C-31.79494141 45.10460937 -31.27738281 45.83421875 -30.74414062 46.5859375 C-27.76802094 50.7369388 -24.66636919 54.63866361 -21.18823242 58.38134766 C-19.83381984 60.2263765 -19.41373462 61.76613614 -19 64 C-18.22914063 63.566875 -17.45828125 63.13375 -16.6640625 62.6875 C-15.66117187 62.130625 -14.65828125 61.57375 -13.625 61 C-12.62726563 60.443125 -11.62953125 59.88625 -10.6015625 59.3125 C-8 58 -8 58 -6 58 C-7.051875 58.47566406 -7.051875 58.47566406 -8.125 58.9609375 C-15.58945584 62.63231388 -20.55471363 66.91811112 -25 74 C-25 74.66 -25 75.32 -25 76 C-23.5410574 75.52269162 -22.08286504 75.04308958 -20.625 74.5625 C-19.81289063 74.29566406 -19.00078125 74.02882813 -18.1640625 73.75390625 C-15.98968201 73.04820271 -15.98968201 73.04820271 -14 72 C-15.65 74.31 -17.3 76.62 -19 79 C-18.505 79.99 -18.505 79.99 -18 81 C-10.97627057 78.12407833 -10.97627057 78.12407833 -5.8125 72.8125 C-4.6783634 70.07837033 -4.6783634 70.07837033 -6 68 C-5.26394531 67.60167969 -4.52789062 67.20335937 -3.76953125 66.79296875 C-2.79371094 66.26316406 -1.81789063 65.73335937 -0.8125 65.1875 C0.63189453 64.40439453 0.63189453 64.40439453 2.10546875 63.60546875 C3.06066406 63.07566406 4.01585937 62.54585937 5 62 C5.9075 61.50242188 6.815 61.00484375 7.75 60.4921875 C10.76456908 58.49294203 11.66306928 56.30714442 13 53 C13 52.34 13 51.68 13 51 C13.66 51 14.32 51 15 51 C15.061875 50.071875 15.12375 49.14375 15.1875 48.1875 C16 45 16 45 18.5625 43.125 C19.366875 42.75375 20.17125 42.3825 21 42 C20.01 41.505 20.01 41.505 19 41 C17.0190686 41.80576351 17.0190686 41.80576351 14.8671875 43.08984375 C14.06152344 43.54423828 13.25585938 43.99863281 12.42578125 44.46679688 C11.58402344 44.95212891 10.74226563 45.43746094 9.875 45.9375 C9.02550781 46.41896484 8.17601562 46.90042969 7.30078125 47.39648438 C5.19634989 48.59057183 3.09644809 49.79196837 1 51 C0.67 50.67 0.34 50.34 0 50 C0.72445312 49.61328125 1.44890625 49.2265625 2.1953125 48.828125 C7.29177543 46.0828303 12.26213387 43.32931133 17 40 C16.51912721 34.46137593 14.44734154 30.86509005 11.5 26.3125 C11.0565625 25.61640625 10.613125 24.9203125 10.15625 24.203125 C6.23348844 18.15181953 2.06814039 12.15552213 -3 7 C-10.66543798 7 -22.23117739 18.77206346 -28.45703125 23.38671875 Z " fill="#E5D5BC" transform="translate(327,129)"/>
<path d="M0 0 C10.54525894 7.75586786 21.86881247 26.58831817 26 39 C26.76807086 45.49659937 24.60305359 50.63397313 22.25 56.5625 C21.90195312 57.48224609 21.55390625 58.40199219 21.1953125 59.34960938 C16.18580178 72.2537379 9.73697329 76.00350691 -2.50976562 81.44335938 C-3.35216797 81.81267578 -4.19457031 82.18199219 -5.0625 82.5625 C-10.52921963 84.97318596 -15.94726765 87.41160863 -21.25146484 90.16503906 C-25.31392031 92.1049438 -29.43979438 92.9277154 -33.875 93.5 C-34.90625 93.665 -35.9375 93.83 -37 94 C-37.495 94.99 -37.495 94.99 -38 96 C-40 94 -40 94 -40.38671875 90.3125 C-40.26625715 85.74937342 -38.42917009 82.63623893 -35.8125 79 C-34.98667673 77.78926873 -34.16115427 76.57833223 -33.3359375 75.3671875 C-32.9347168 74.79194336 -32.53349609 74.21669922 -32.12011719 73.62402344 C-30.65532372 71.50026447 -29.28988643 69.32165078 -27.9375 67.125 C-27.298125 66.09375 -26.65875 65.0625 -26 64 C-28.99378247 58.68345527 -32.7356684 53.97503307 -36.44140625 49.14648438 C-45.3941961 37.36353048 -45.3941961 37.36353048 -46.79296875 31.90625 C-45.51405395 27.21899575 -42.13773259 25.27162565 -38.3125 22.5 C-37.51972656 21.90485596 -36.72695313 21.30971191 -35.91015625 20.6965332 C-6.99281833 -0.73608614 -6.99281833 -0.73608614 0 0 Z M-10.625 7.5625 C-12.22214844 8.66464844 -12.22214844 8.66464844 -13.8515625 9.7890625 C-14.89054687 10.51867187 -15.92953125 11.24828125 -17 12 C-17.85335938 12.58523437 -18.70671875 13.17046875 -19.5859375 13.7734375 C-26.18902503 18.32508036 -32.69230153 23.0460085 -39 28 C-39.63035156 28.47953125 -40.26070313 28.9590625 -40.91015625 29.453125 C-42.22805147 30.99774679 -42.22805147 30.99774679 -41.9453125 33.296875 C-40.74375223 36.73274156 -38.98726223 39.28567267 -36.875 42.25 C-36.47192627 42.81920166 -36.06885254 43.38840332 -35.65356445 43.97485352 C-32.75283702 48.04137419 -29.73837491 52.01135165 -26.60546875 55.90234375 C-24.60388882 58.51754673 -22.80541982 61.24683269 -21 64 C-21.65226562 64.87140625 -22.30453125 65.7428125 -22.9765625 66.640625 C-28.50664507 74.13893443 -33.15984471 81.47672849 -37 90 C-31.14653912 89.4844778 -26.43490431 88.27218867 -21.0625 85.9375 C-20.33885254 85.63094482 -19.61520508 85.32438965 -18.86962891 85.00854492 C4.16076547 76.16476852 4.16076547 76.16476852 18.41796875 57.6171875 C22.36866815 48.03864483 22.36866815 48.03864483 22 38 C17.01227087 26.92243728 8.53311721 11.69784899 -1 4 C-5.67610405 4 -6.85857434 4.94389007 -10.625 7.5625 Z " fill="#FCFBF7" transform="translate(327,129)"/>
<path d="M0 0 C0.66 0.33 1.32 0.66 2 1 C3.01620428 4.04861284 3.09851415 6.24672156 3.1875 9.4375 C3.84446963 17.90624916 7.29506371 25.47186818 13.125 31.6875 C15.77901327 33.8222498 16.83303665 34.38155866 20 35 C20 36.65 20 38.3 20 40 C12.7809357 42.8074139 7.05611655 44.59515489 -0.3671875 41.67578125 C-7.25910525 38.54275717 -13.1777845 34.96431917 -18 29 C-18.33 29.99 -18.66 30.98 -19 32 C-17.86428054 34.21379076 -17.86428054 34.21379076 -16.1875 36.4375 C-14.20393287 39.22203248 -12.44813917 41.89886295 -11 45 C-19.90599491 41.07202845 -24.46872564 31.59118761 -28 23 C-29.12400997 18.58377147 -29.07680874 14.53171588 -29 10 C-28.34 10 -27.68 10 -27 10 C-25.68 15.28 -24.36 20.56 -23 26 C-12.89140005 18.96008218 -6.29670247 10.52729944 0 0 Z " fill="#AC9181" transform="translate(311,322)"/>
<path d="M0 0 C0.33 0 0.66 0 1 0 C1.22042969 1.34191406 1.22042969 1.34191406 1.4453125 2.7109375 C3.54567227 14.0335666 7.17587446 21.89988451 15.6796875 29.72265625 C16.11539062 30.14417969 16.55109375 30.56570313 17 31 C17 31.33 17 31.66 17 32 C12.05 32.495 12.05 32.495 7 33 C7.66 33.66 8.32 34.32 9 35 C0.80624328 34.86567612 -4.57288718 32.03182508 -11 27 C-11.66 26.01 -12.32 25.02 -13 24 C-12.56429688 23.35675781 -12.12859375 22.71351563 -11.6796875 22.05078125 C-7.00153866 14.95255109 -3.38162594 7.79136527 0 0 Z " fill="#F3ECE5" transform="translate(312,327)"/>
<path d="M0 0 C3.49928164 2.33285443 3.6329098 3.20795069 4.6875 7.125 C4.93886719 8.03507813 5.19023437 8.94515625 5.44921875 9.8828125 C5.63097656 10.58148438 5.81273437 11.28015625 6 12 C5.01 12.495 5.01 12.495 4 13 C4.12375 14.85625 4.12375 14.85625 4.25 16.75 C4.26153532 20.00872649 4.19423516 20.74749429 2.125 23.4375 C-2.06921734 26.52148334 -5.90105764 26.76982256 -11 26 C-13.84618734 23.84800469 -14.73027585 22.31997747 -15.44140625 18.83984375 C-15.69775683 15.57273741 -15.73009275 13.08263754 -13.859375 10.30859375 C-11.19938082 7.85159913 -9.20707546 7.01917365 -5.625 6.6875 C-4.325625 6.8421875 -4.325625 6.8421875 -3 7 C-2.690625 6.21625 -2.38125 5.4325 -2.0625 4.625 C-1 2 -1 2 0 0 Z " fill="#DDD0C5" transform="translate(298,233)"/>
<path d="M0 0 C0.66 0.33 1.32 0.66 2 1 C0.7934375 1.556875 0.7934375 1.556875 -0.4375 2.125 C-3.31172896 3.8109337 -3.31172896 3.8109337 -3.8125 7.1875 C-3.9053125 8.5796875 -3.9053125 8.5796875 -4 10 C-4.66 10 -5.32 10 -6 10 C-6.2475 10.9075 -6.495 11.815 -6.75 12.75 C-8.97514917 18.53538785 -12.80116603 20.64403593 -18.25 23.25 C-19.32765625 23.77078125 -20.4053125 24.2915625 -21.515625 24.828125 C-22.33546875 25.21484375 -23.1553125 25.6015625 -24 26 C-25.0625 24.125 -25.0625 24.125 -26 22 C-25 20 -25 20 -22.5 19.125 C-21.2625 18.568125 -21.2625 18.568125 -20 18 C-19.33820153 16.01954441 -19.33820153 16.01954441 -19 14 C-16 12 -16 12 -13 12 C-13.33 10.68 -13.66 9.36 -14 8 C-11.7136988 6.63597957 -9.42178251 5.28365726 -7.125 3.9375 C-6.47402344 3.54755859 -5.82304687 3.15761719 -5.15234375 2.75585938 C-3.46934275 1.77555467 -1.73703801 0.88101568 0 0 Z " fill="#D3B999" transform="translate(346,170)"/>
<path d="M0 0 C3 2 3 2 5 5 C5.11209642 7.88781741 4.63060547 10.13802132 4 13 C3.67 13 3.34 13 3 13 C2.34 11.02 1.68 9.04 1 7 C-1.475 6.505 -1.475 6.505 -4 6 C-4 5.34 -4 4.68 -4 4 C-5.093125 4.433125 -6.18625 4.86625 -7.3125 5.3125 C-8.23482422 5.67794922 -8.23482422 5.67794922 -9.17578125 6.05078125 C-11.08236064 6.89939195 -11.08236064 6.89939195 -12.34960938 8.56835938 C-14 10 -14 10 -15.99291992 10.15698242 C-16.73131104 10.05748291 -17.46970215 9.9579834 -18.23046875 9.85546875 C-19.03291016 9.75556641 -19.83535156 9.65566406 -20.66210938 9.55273438 C-21.49548828 9.43220703 -22.32886719 9.31167969 -23.1875 9.1875 C-24.03248047 9.07857422 -24.87746094 8.96964844 -25.74804688 8.85742188 C-27.83400115 8.58636567 -29.91731128 8.29510064 -32 8 C-32 7.01 -32 6.02 -32 5 C-26.06 5 -20.12 5 -14 5 C-14 4.01 -14 3.02 -14 2 C-9.20559312 0.43447939 -5.09775149 -0.66081964 0 0 Z " fill="#B0988B" transform="translate(304,221)"/>
<path d="M0 0 C2.375 -0.125 2.375 -0.125 5 0 C7.57455698 2.57455698 7.41265954 4.47595722 8 8 C8.66 8.66 9.32 9.32 10 10 C10.625 12.625 10.625 12.625 11 15 C10.01 15 9.02 15 8 15 C5.31232422 17.43750025 5.31232422 17.43750025 3 20 C2.34 19.67 1.68 19.34 1 19 C1.33 18.34 1.66 17.68 2 17 C1.69579454 15.19130534 1.69579454 15.19130534 1 13 C0.649375 11.7625 0.29875 10.525 -0.0625 9.25 C-0.371875 8.1775 -0.68125 7.105 -1 6 C-0.34 5.67 0.32 5.34 1 5 C1.66 5.66 2.32 6.32 3 7 C3.33 5.35 3.66 3.7 4 2 C2.68 1.67 1.36 1.34 0 1 C0 0.67 0 0.34 0 0 Z " fill="#F2EAE2" transform="translate(300,227)"/>
<path d="M0 0 C7.16025099 13.92281115 5.21327609 31.0558135 3 46 C2.34 46 1.68 46 1 46 C1.00523682 45.03288086 1.01047363 44.06576172 1.01586914 43.06933594 C1.03419785 39.42383783 1.04553207 35.77834364 1.05493164 32.1328125 C1.059909 30.5657482 1.06669329 28.99868842 1.07543945 27.43164062 C1.12544049 18.23144947 0.99146255 9.16124808 0 0 Z " fill="#A8866D" transform="translate(319,258)"/>
<path d="M0 0 C0 0.99 0 1.98 0 3 C0.886875 2.608125 1.77375 2.21625 2.6875 1.8125 C6 1 6 1 8.875 2.375 C9.57625 2.91125 10.2775 3.4475 11 4 C10.67 5.32 10.34 6.64 10 8 C4.25 8.125 4.25 8.125 2 7 C2.33 8.32 2.66 9.64 3 11 C0.7522025 8.94766315 -0.0022242 7.99332739 -1 5 C-2.65 5 -4.3 5 -6 5 C-6 3.68 -6 2.36 -6 1 C-4 0 -4 0 0 0 Z " fill="#AB8F80" transform="translate(278,231)"/>
<path d="M0 0 C13.55912262 -0.80815963 27.21145633 1.39114173 40 6 C39.34 6.66 38.68 7.32 38 8 C29.25669725 7.67478416 20.81435495 5.23668996 12.4453125 2.88671875 C8.26769155 1.81152606 4.29581001 1.30146035 0 1 C0 0.67 0 0.34 0 0 Z " fill="#A58574" transform="translate(151,366)"/>
<path d="M0 0 C-17.29220233 7.46192596 -37.60468563 5.30713985 -56 5 C-56 4.67 -56 4.34 -56 4 C-54.84552368 3.970271 -54.84552368 3.970271 -53.66772461 3.93994141 C-31.14457923 3.67180579 -31.14457923 3.67180579 -9 0 C-3.41772152 -1.13924051 -3.41772152 -1.13924051 0 0 Z " fill="#9A7A6C" transform="translate(252,370)"/>
<path d="M0 0 C0.99 0 1.98 0 3 0 C3 1.65 3 3.3 3 5 C-2.79622721 7.32637691 -6.86090397 8.43680971 -13 7 C-13.33 6.01 -13.66 5.02 -14 4 C-12.35 4 -10.7 4 -9 4 C-9.33 3.34 -9.66 2.68 -10 2 C-6.7 1.67 -3.4 1.34 0 1 C0 0.67 0 0.34 0 0 Z " fill="#B0998C" transform="translate(328,357)"/>
<path d="M0 0 C0.33 0 0.66 0 1 0 C2.39014418 9.36836292 1.6704154 16.25716502 -2 25 C-2.99 25 -3.98 25 -5 25 C-5 25.66 -5 26.32 -5 27 C-5.66 26.67 -6.32 26.34 -7 26 C-6.66226562 25.21238281 -6.32453125 24.42476563 -5.9765625 23.61328125 C-2.76717831 15.77533432 -0.92256559 8.41324735 0 0 Z " fill="#AC9485" transform="translate(319,294)"/>
<path d="M0 0 C0.33 0.66 0.66 1.32 1 2 C-0.58278317 6.07001387 -1.60444317 8.24653035 -5.49609375 10.34765625 C-7.97663025 11.32931537 -10.45039726 12.21662969 -13 13 C-10.89064705 7.26639515 -8.10063079 4.14940175 -2.6875 1.1875 C-1.800625 0.795625 -0.91375 0.40375 0 0 Z " fill="#BA926F" transform="translate(321,197)"/>
<path d="M0 0 C0.99 0.33 1.98 0.66 3 1 C2.67 1.70125 2.34 2.4025 2 3.125 C0.90955438 6.26003116 0.84677357 8.70563182 1 12 C0.01 12 -0.98 12 -2 12 C-2.33 10.02 -2.66 8.04 -3 6 C-4.65 7.32 -6.3 8.64 -8 10 C-8 7 -8 7 -5.6875 4.4375 C-3 2 -3 2 0 0 Z " fill="#A38C7E" transform="translate(159,337)"/>
<path d="M0 0 C0.66 0.33 1.32 0.66 2 1 C3.28317892 4.84953676 3.06643637 7.94738135 3 12 C2.67 12 2.34 12 2 12 C1.67 10.35 1.34 8.7 1 7 C0.01 9.31 -0.98 11.62 -2 14 C-4.97 13.505 -4.97 13.505 -8 13 C-7.50628906 12.22914063 -7.01257813 11.45828125 -6.50390625 10.6640625 C-5.86324219 9.66117187 -5.22257812 8.65828125 -4.5625 7.625 C-3.92441406 6.62726563 -3.28632813 5.62953125 -2.62890625 4.6015625 C-1.03100789 2.14169479 -1.03100789 2.14169479 0 0 Z " fill="#B09788" transform="translate(311,322)"/>
<path d="M0 0 C0.66 0.33 1.32 0.66 2 1 C1.01 1 0.02 1 -1 1 C-0.67 0.67 -0.34 0.34 0 0 Z M-3 2 C-2.34 2.33 -1.68 2.66 -1 3 C-2.28965176 4.37562854 -3.62689293 5.70766393 -5 7 C-5.66 7 -6.32 7 -7 7 C-7.33 7.99 -7.66 8.98 -8 10 C-8.9075 9.649375 -9.815 9.29875 -10.75 8.9375 C-13.87758436 8.03531221 -15.05208081 7.86618493 -18 9 C-18 8.01 -18 7.02 -18 6 C-20.64 5.67 -23.28 5.34 -26 5 C-26 4.67 -26 4.34 -26 4 C-19.92583075 3.88368612 -14.13629736 4.1195932 -8.12890625 5.07421875 C-5.8869881 5.21317196 -5.8869881 5.21317196 -4.21484375 3.51953125 C-3.61349609 2.76736328 -3.61349609 2.76736328 -3 2 Z " fill="#EDDED2" transform="translate(296,225)"/>
<path d="M0 0 C0.66 0 1.32 0 2 0 C2.33 2.31 2.66 4.62 3 7 C-2.94 10.3 -8.88 13.6 -15 17 C-15.66 16.34 -16.32 15.68 -17 15 C-16.48501953 14.72325439 -15.97003906 14.44650879 -15.43945312 14.16137695 C-13.11505163 12.89794379 -10.80787147 11.60586199 -8.5 10.3125 C-7.68917969 9.87744141 -6.87835938 9.44238281 -6.04296875 8.99414062 C-5.27597656 8.55908203 -4.50898438 8.12402344 -3.71875 7.67578125 C-3.00654297 7.28302002 -2.29433594 6.89025879 -1.56054688 6.4855957 C0.29202013 5.05007312 0.29202013 5.05007312 0.23242188 2.33276367 C0.15572266 1.56295166 0.07902344 0.79313965 0 0 Z " fill="#E8CDAD" transform="translate(343,164)"/>
<path d="M0 0 C0.33 0.66 0.66 1.32 1 2 C1.99 2.33 2.98 2.66 4 3 C5.12520495 14.01093413 5.09920291 24.94438708 5 36 C4.67 36 4.34 36 4 36 C3.96261719 34.86304688 3.92523438 33.72609375 3.88671875 32.5546875 C3.53159703 23.70262891 2.75130968 15.44310045 0.62109375 6.8203125 C0 4 0 4 0 0 Z " fill="#B29989" transform="translate(316,254)"/>
<path d="M0 0 C0.66 0.33 1.32 0.66 2 1 C0.7934375 1.556875 0.7934375 1.556875 -0.4375 2.125 C-3.31172896 3.8109337 -3.31172896 3.8109337 -3.8125 7.1875 C-3.874375 8.115625 -3.93625 9.04375 -4 10 C-4.33 9.34 -4.66 8.68 -5 8 C-7.64 8.99 -10.28 9.98 -13 11 C-13.33 10.01 -13.66 9.02 -14 8 C-11.7136988 6.63597957 -9.42178251 5.28365726 -7.125 3.9375 C-6.47402344 3.54755859 -5.82304687 3.15761719 -5.15234375 2.75585938 C-3.46934275 1.77555467 -1.73703801 0.88101568 0 0 Z " fill="#C7B091" transform="translate(346,170)"/>
<path d="M0 0 C1.17219543 0.78345715 2.33763668 1.57702836 3.5 2.375 C4.1496875 2.81585938 4.799375 3.25671875 5.46875 3.7109375 C6.22671875 4.34902344 6.22671875 4.34902344 7 5 C7 5.66 7 6.32 7 7 C-0.42857143 7.14285714 -0.42857143 7.14285714 -4 6 C-3.34 4.68 -2.68 3.36 -2 2 C-1.34 2 -0.68 2 0 2 C0 1.34 0 0.68 0 0 Z " fill="#F0E4DB" transform="translate(293,362)"/>
<path d="M0 0 C5.63470383 -0.5497272 8.38987758 1.04952165 13 4 C13 4.66 13 5.32 13 6 C13.99 6.33 14.98 6.66 16 7 C9.68368172 6.59683075 5.35006016 4.28767869 0 1 C0 0.67 0 0.34 0 0 Z " fill="#A88576" transform="translate(302,358)"/>
<path d="M0 0 C0 1.32 0 2.64 0 4 C-3 6 -3 6 -5.1875 5.625 C-5.785625 5.41875 -6.38375 5.2125 -7 5 C-6.625 2.5625 -6.625 2.5625 -6 0 C-3.50907189 -1.24546405 -2.58919267 -0.7767578 0 0 Z " fill="#DFD3CD" transform="translate(198,360)"/>
<path d="M0 0 C0.33 0 0.66 0 1 0 C1.33 2.97 1.66 5.94 2 9 C0.68 8.67 -0.64 8.34 -2 8 C-1.67 8.99 -1.34 9.98 -1 11 C-1.99 11 -2.98 11 -4 11 C-4.36243301 7.1038451 -4.28893695 5.42874515 -2.0625 2.125 C-1.0415625 1.073125 -1.0415625 1.073125 0 0 Z " fill="#EEDCD3" transform="translate(156,342)"/>
<path d="M0 0 C1.32 0 2.64 0 4 0 C3.6875 2.375 3.6875 2.375 3 5 C0 7 0 7 -3 7 C-2.25 2.25 -2.25 2.25 0 0 Z " fill="#DDD4CC" transform="translate(213,344)"/>
<path d="M0 0 C1.29315061 0.95632999 2.58446853 1.91513851 3.875 2.875 C4.59429687 3.40867187 5.31359375 3.94234375 6.0546875 4.4921875 C8 6 8 6 10 8 C9.625 10.125 9.625 10.125 9 12 C7.35 12.33 5.7 12.66 4 13 C4.66 11.68 5.32 10.36 6 9 C5.566875 8.51789063 5.13375 8.03578125 4.6875 7.5390625 C4.130625 6.90742188 3.57375 6.27578125 3 5.625 C2.443125 4.99851562 1.88625 4.37203125 1.3125 3.7265625 C0 2 0 2 0 0 Z " fill="#9E8677" transform="translate(295,359)"/>
<path d="M0 0 C0.33 0.66 0.66 1.32 1 2 C-0.109375 4.27734375 -0.109375 4.27734375 -1.75 6.9375 C-2.28109375 7.81277344 -2.8121875 8.68804687 -3.359375 9.58984375 C-4.77381657 11.66772578 -6.15172324 13.3131691 -8 15 C-8.66 14.67 -9.32 14.34 -10 14 C-8.71117878 12.03979285 -7.41885043 10.08189123 -6.125 8.125 C-5.04605469 6.48917969 -5.04605469 6.48917969 -3.9453125 4.8203125 C-2 2 -2 2 0 0 Z " fill="#F2E7DD" transform="translate(250,280)"/>
<path d="M0 0 C0 0.99 0 1.98 0 3 C0.66 3.33 1.32 3.66 2 4 C1.34 5.32 0.68 6.64 0 8 C-0.33 7.01 -0.66 6.02 -1 5 C-2.65 5 -4.3 5 -6 5 C-6 3.68 -6 2.36 -6 1 C-4 0 -4 0 0 0 Z " fill="#C7B4A7" transform="translate(278,231)"/>
<path d="M0 0 C0 0.33 0 0.66 0 1 C0.99 1.33 1.98 1.66 3 2 C-3.625 4 -3.625 4 -7 4 C-7 3.34 -7 2.68 -7 2 C-8.32 1.67 -9.64 1.34 -11 1 C-3.375 -1.125 -3.375 -1.125 0 0 Z " fill="#F3F0EA" transform="translate(301,218)"/>
<path d="M0 0 C0 0.66 0 1.32 0 2 C0.99 2 1.98 2 3 2 C3 2.66 3 3.32 3 4 C1.35 4.66 -0.3 5.32 -2 6 C-3.65 4.68 -5.3 3.36 -7 2 C-4 0 -4 0 0 0 Z " fill="#B39877" transform="translate(139,347)"/>
<path d="M0 0 C0.66 0 1.32 0 2 0 C1.98259766 1.08667969 1.98259766 1.08667969 1.96484375 2.1953125 C1.91768689 7.24783323 1.92622436 12.03378767 3 17 C2.34 17 1.68 17 1 17 C0.49733206 14.87562952 -0.0020561 12.75048274 -0.5 10.625 C-0.7784375 9.44164062 -1.056875 8.25828125 -1.34375 7.0390625 C-2 4 -2 4 -2 2 C-1.34 2 -0.68 2 0 2 C0 1.34 0 0.68 0 0 Z " fill="#A37B6F" transform="translate(314,319)"/>
<path d="M0 0 C3.26008643 3.16952847 6.22237877 6.39937989 9 10 C7.35 10 5.7 10 4 10 C4 8.68 4 7.36 4 6 C2.68 6 1.36 6 0 6 C0 4.02 0 2.04 0 0 Z " fill="#B29A8C" transform="translate(264,353)"/>
<path d="M0 0 C2.31 0 4.62 0 7 0 C4.7360039 2.46717524 2.40939756 4.10134139 -0.5 5.75 C-1.66015625 6.42289063 -1.66015625 6.42289063 -2.84375 7.109375 C-5 8 -5 8 -8 7 C-5.36 5.68 -2.72 4.36 0 3 C0 2.01 0 1.02 0 0 Z " fill="#C4A686" transform="translate(320,178)"/>
<path d="M0 0 C0.66 0.33 1.32 0.66 2 1 C1.360625 1.2475 0.72125 1.495 0.0625 1.75 C-2.18741541 2.81562433 -2.18741541 2.81562433 -2.75 5.125 C-2.8325 5.74375 -2.915 6.3625 -3 7 C-5.31 7.33 -7.62 7.66 -10 8 C-6.97727468 4.74475735 -3.74281699 2.38179263 0 0 Z " fill="#A68D72" transform="translate(204,337)"/>
<path d="M0 0 C0.66 0 1.32 0 2 0 C2.66 3.96 3.32 7.92 4 12 C3.01 12.33 2.02 12.66 1 13 C-0.10228696 8.59085217 -0.07654536 4.51617599 0 0 Z " fill="#B1A49B" transform="translate(282,332)"/>
<path d="M0 0 C0.66 0.33 1.32 0.66 2 1 C1.67 1.99 1.34 2.98 1 4 C-4.625 5.125 -4.625 5.125 -8 4 C-8.33 3.01 -8.66 2.02 -9 1 C-7.700625 1.020625 -6.40125 1.04125 -5.0625 1.0625 C-3.70834367 1.08399454 -2.35243917 1.07148199 -1 1 C-0.67 0.67 -0.34 0.34 0 0 Z " fill="#AC9282" transform="translate(323,360)"/>
<path d="M0 0 C1.32 0.66 2.64 1.32 4 2 C4 2.99 4 3.98 4 5 C0.66666667 5 -2.66666667 5 -6 5 C-4.06745228 2.9754262 -2.36841312 1.57894208 0 0 Z " fill="#C5A784" transform="translate(322,136)"/>
<path d="M0 0 C2.27076842 -0.02699725 4.54162821 -0.04639453 6.8125 -0.0625 C8.07707031 -0.07410156 9.34164062 -0.08570313 10.64453125 -0.09765625 C14 0 14 0 17 1 C16.67 1.99 16.34 2.98 16 4 C14.5459375 3.5359375 14.5459375 3.5359375 13.0625 3.0625 C8.76335509 1.82032903 4.44657366 1.38315147 0 1 C0 0.67 0 0.34 0 0 Z " fill="#A1886F" transform="translate(151,366)"/>
<path d="M0 0 C0.33 0.99 0.66 1.98 1 3 C0.34 3.66 -0.32 4.32 -1 5 C-1 5.66 -1 6.32 -1 7 C-1.66 7 -2.32 7 -3 7 C-3.28875 7.639375 -3.5775 8.27875 -3.875 8.9375 C-5 11 -5 11 -7 12 C-5.63855967 6.80177328 -3.53269829 3.90456127 0 0 Z " fill="#F4E8DC" transform="translate(255,237)"/>
<path d="M0 0 C2.35953094 2.35953094 2.49141413 3.77895617 3 7 C2.01 7 1.02 7 0 7 C-0.99 7.495 -0.99 7.495 -2 8 C-2 6.68 -2 5.36 -2 4 C-2.66 3.67 -3.32 3.34 -4 3 C-2.68 2.01 -1.36 1.02 0 0 Z " fill="#EBDDD8" transform="translate(308,235)"/>
<path d="M0 0 C1.11058786 2.07309734 1.97398494 3.88618411 2.5 6.1875 C2.665 6.785625 2.83 7.38375 3 8 C3.66 8.33 4.32 8.66 5 9 C3.02 9.99 3.02 9.99 1 11 C0.01 8.03 -0.98 5.06 -2 2 C-1.34 1.34 -0.68 0.68 0 0 Z " fill="#A8938A" transform="translate(247,271)"/>
<path d="M0 0 C4.29 0.66 8.58 1.32 13 2 C11 4 11 4 7.0625 4.1875 C4.32363845 4.16190316 2.65992468 3.88664156 0 3 C0 2.01 0 1.02 0 0 Z " fill="#AB9080" transform="translate(168,367)"/>
<path d="M0 0 C0.66 0.33 1.32 0.66 2 1 C3.28317892 4.84953676 3.06643637 7.94738135 3 12 C2.67 12 2.34 12 2 12 C1.67 10.35 1.34 8.7 1 7 C0.01 7 -0.98 7 -2 7 C-1.34 4.69 -0.68 2.38 0 0 Z " fill="#AC9180" transform="translate(311,322)"/>
<path d="M0 0 C0.66 0.66 1.32 1.32 2 2 C1.67028521 5.29714793 1.3773161 6.6226839 -1 9 C-1.33 9.66 -1.66 10.32 -2 11 C-2.99 10.67 -3.98 10.34 -5 10 C-3.35 6.7 -1.7 3.4 0 0 Z " fill="#EFE7DC" transform="translate(236,301)"/>
<path d="M0 0 C0.99 0 1.98 0 3 0 C3 1.65 3 3.3 3 5 C1.35 5 -0.3 5 -2 5 C-1.125 1.125 -1.125 1.125 0 0 Z " fill="#DFD6D1" transform="translate(207,355)"/>
<path d="M0 0 C0.66 0.66 1.32 1.32 2 2 C1.70700977 3.67422986 1.37309899 5.34178227 1 7 C1.33 7.66 1.66 8.32 2 9 C1.01 9 0.02 9 -1 9 C-1.625 5.625 -1.625 5.625 -2 2 C-1.34 1.34 -0.68 0.68 0 0 Z " fill="#B9A398" transform="translate(160,348)"/>
<path d="M0 0 C1.32 0.33 2.64 0.66 4 1 C2.68 3.31 1.36 5.62 0 8 C-0.33 7.34 -0.66 6.68 -1 6 C-1.66 5.67 -2.32 5.34 -3 5 C-2.01 3.35 -1.02 1.7 0 0 Z " fill="#B29C78" transform="translate(239,290)"/>
<path d="M0 0 C-0.66 1.98 -1.32 3.96 -2 6 C-2.66 6 -3.32 6 -4 6 C-3.67 7.32 -3.34 8.64 -3 10 C-3.66 9.67 -4.32 9.34 -5 9 C-5.36666667 3.5 -5.36666667 3.5 -3.625 1.125 C-2 0 -2 0 0 0 Z " fill="#AC988D" transform="translate(284,232)"/>
<path d="M0 0 C0 0.66 0 1.32 0 2 C-6.625 3.125 -6.625 3.125 -10 2 C-6.5980513 -0.09350689 -3.94727588 -0.17942163 0 0 Z " fill="#A18877" transform="translate(272,227)"/>
<path d="M0 0 C2.31 0 4.62 0 7 0 C7.33 0.99 7.66 1.98 8 3 C5.36 3 2.72 3 0 3 C0 2.01 0 1.02 0 0 Z " fill="#B0947E" transform="translate(272,226)"/>
<path d="M0 0 C0.66 0.33 1.32 0.66 2 1 C-1.625 7.875 -1.625 7.875 -5 9 C-3.7508258 5.54074837 -2.32472205 2.85306797 0 0 Z " fill="#B79674" transform="translate(313,201)"/>
<path d="M0 0 C1.31571603 0.2547514 2.62760376 0.52934141 3.9375 0.8125 C4.66839844 0.96332031 5.39929688 1.11414063 6.15234375 1.26953125 C6.76207031 1.51058594 7.37179688 1.75164062 8 2 C8.33 2.99 8.66 3.98 9 5 C6.03 4.505 6.03 4.505 3 4 C3 3.34 3 2.68 3 2 C2.01 2 1.02 2 0 2 C0 1.34 0 0.68 0 0 Z " fill="#A28B7F" transform="translate(139,347)"/>
<path d="M0 0 C0.99 0.66 1.98 1.32 3 2 C1.07423885 4.43929746 -0.80090595 6.80090595 -3 9 C-3.36923077 3.46153846 -3.36923077 3.46153846 -1.5 1.125 C-1.005 0.75375 -0.51 0.3825 0 0 Z " fill="#B09A8E" transform="translate(252,236)"/>
<path d="M0 0 C2.64 0 5.28 0 8 0 C5.37801226 2.15377564 3.35595828 3.40072174 0 4 C-0.33 3.34 -0.66 2.68 -1 2 C-0.67 1.34 -0.34 0.68 0 0 Z " fill="#E3D8C2" transform="translate(309,209)"/>
<path d="M0 0 C1.32 0 2.64 0 4 0 C4.66 1.65 5.32 3.3 6 5 C5.34 5.66 4.68 6.32 4 7 C2.02 3.535 2.02 3.535 0 0 Z " fill="#AD978C" transform="translate(317,344)"/>
<path d="M0 0 C0.99 0.33 1.98 0.66 3 1 C3 1.66 3 2.32 3 3 C0.36 3.99 -2.28 4.98 -5 6 C-5 5.34 -5 4.68 -5 4 C-4.01 4 -3.02 4 -2 4 C-2 3.01 -2 2.02 -2 1 C-1.34 0.67 -0.68 0.34 0 0 Z " fill="#B1978C" transform="translate(184,349)"/>
<path d="M0 0 C0.99 0 1.98 0 3 0 C2.67 1.32 2.34 2.64 2 4 C0.68 4.33 -0.64 4.66 -2 5 C-1.125 1.125 -1.125 1.125 0 0 Z " fill="#DED5CF" transform="translate(200,348)"/>
<path d="M0 0 C0.99 0 1.98 0 3 0 C3.33 1.98 3.66 3.96 4 6 C3.01 6 2.02 6 1 6 C0.67 4.02 0.34 2.04 0 0 Z " fill="#F6E8DF" transform="translate(286,342)"/>
<path d="M0 0 C0.33 0 0.66 0 1 0 C1.22174933 1.45635371 1.42698698 2.91522956 1.625 4.375 C1.74101562 5.18710937 1.85703125 5.99921875 1.9765625 6.8359375 C1.98429687 7.55007813 1.99203125 8.26421875 2 9 C1.34 9.66 0.68 10.32 0 11 C-2.21538462 5.70769231 -2.21538462 5.70769231 -1.125 2.125 C-0.75375 1.42375 -0.3825 0.7225 0 0 Z " fill="#EEDDD2" transform="translate(312,327)"/>
<path d="M0 0 C0.33 0.66 0.66 1.32 1 2 C1.99 2.33 2.98 2.66 4 3 C3.67 4.98 3.34 6.96 3 9 C2.34 9 1.68 9 1 9 C0.67 6.03 0.34 3.06 0 0 Z " fill="#B0947F" transform="translate(316,254)"/>
<path d="M0 0 C0.99 0.33 1.98 0.66 3 1 C-0.36423277 3.96052484 -3.69159287 4.92289822 -8 6 C-8 5.34 -8 4.68 -8 4 C-6.865625 3.525625 -5.73125 3.05125 -4.5625 2.5625 C-1.24259834 1.36377917 -1.24259834 1.36377917 0 0 Z " fill="#E5DCC9" transform="translate(305,212)"/>
<path d="M0 0 C0.66 0.33 1.32 0.66 2 1 C0.8553125 1.8971875 0.8553125 1.8971875 -0.3125 2.8125 C-2.3483575 4.46959332 -4.1978279 6.10297674 -6 8 C-6.66 7.34 -7.32 6.68 -8 6 C-5.36 4.02 -2.72 2.04 0 0 Z " fill="#BEA384" transform="translate(314,141)"/>
<path d="M0 0 C3.057952 1.73559438 5.63379989 3.38472619 8 6 C7.67 6.66 7.34 7.32 7 8 C5.50260417 6.69791667 4.00520833 5.39583333 2.5078125 4.09375 C1.04063579 2.80427542 1.04063579 2.80427542 -1 3 C-0.67 2.01 -0.34 1.02 0 0 Z " fill="#A38876" transform="translate(291,348)"/>
<path d="M0 0 C2 3 2 3 2 7 C1.01 7 0.02 7 -1 7 C-1 7.66 -1 8.32 -1 9 C-1.66 8.67 -2.32 8.34 -3 8 C-2.01 5.36 -1.02 2.72 0 0 Z " fill="#B3987D" transform="translate(315,312)"/>
<path d="M0 0 C0.66 0 1.32 0 2 0 C2 1.65 2 3.3 2 5 C0.35 5.66 -1.3 6.32 -3 7 C-1.125 1.125 -1.125 1.125 0 0 Z " fill="#B78B65" transform="translate(315,201)"/>
</svg>
